<?xml version="1.0" encoding="UTF-8" standalone="no"?>
<!DOCTYPE svg PUBLIC "-//W3C//DTD SVG 1.1//EN" "http://www.w3.org/Graphics/SVG/1.1/DTD/svg11.dtd">
<svg width="100%" height="100%" viewBox="0 0 800 200" version="1.1" xmlns="http://www.w3.org/2000/svg" xmlns:xlink="http://www.w3.org/1999/xlink" xml:space="preserve" xmlns:serif="http://www.serif.com/" style="fill-rule:evenodd;clip-rule:evenodd;stroke-linejoin:round;stroke-miterlimit:2;">
    <g id="Rectangle_11_copy" transform="matrix(0.148717,0,0,0.152062,249.091,10.4411)">
        <rect x="850" y="229" width="9" height="714" style="fill:black;"/>
    </g>
    <g transform="matrix(1.01177,0,0,1.01177,-193.773,-464.466)">
        <g>
            <path d="M268.8,503.8L254.9,503.8C254.4,503.8 254,504 253.7,504.3C253.4,504.6 253.2,505 253.2,505.5L253.2,520.7C253.7,520.6 254.3,520.5 254.8,520.5C255.4,520.5 256,520.6 256.5,520.7L256.5,507.1L267.1,507.1L267.1,565.9L256.5,565.9L256.5,543.5C256.5,543 256.3,542.6 256,542.3C255.7,542 255.3,541.8 254.8,541.8L213.5,541.8C213,541.8 212.6,542 212.3,542.3C212,542.6 211.8,543 211.8,543.5L211.8,567.6C211.8,568.1 212,568.5 212.3,568.8C212.6,569.1 213,569.3 213.5,569.3L227.5,569.3C228,569.3 228.4,569.1 228.7,568.8C229,568.5 229.2,568.1 229.2,567.6L229.2,545.2L253.1,545.2L253.1,567.6C253.1,568.1 253.3,568.5 253.6,568.8C253.9,569.1 254.3,569.3 254.8,569.3L268.7,569.3C269.2,569.3 269.6,569.1 269.9,568.8C270.2,568.5 270.4,568.1 270.4,567.6L270.4,505.4C270.4,504.9 270.2,504.5 269.9,504.2C269.7,503.9 269.3,503.8 268.8,503.8ZM225.9,565.9L215.3,565.9L215.3,545.2L225.9,545.2L225.9,565.9Z" style="fill:black;fill-rule:nonzero;"/>
            <path d="M213.6,531.3L248.2,531.3C249,534.2 251.6,536.4 254.8,536.4C258.6,536.4 261.6,533.3 261.6,529.6C261.6,526.4 259.4,523.8 256.5,523C255.9,522.8 255.4,522.8 254.8,522.8C254.2,522.8 253.7,522.9 253.2,523C250.8,523.6 248.8,525.5 248.2,528L229.3,528L229.3,505.6C229.3,505.1 229.1,504.7 228.8,504.4C228.5,504.1 228.1,503.9 227.6,503.9L213.6,503.9C213.1,503.9 212.7,504.1 212.4,504.4C212.1,504.7 211.9,505.1 211.9,505.6L211.9,529.7C211.9,530.2 212.1,530.6 212.4,530.9C212.8,531.1 213.2,531.3 213.6,531.3ZM253.2,526.4C253.7,526.1 254.2,526 254.8,526C255.4,526 256,526.2 256.5,526.5C257.6,527.1 258.3,528.2 258.3,529.6C258.3,531.5 256.7,533.1 254.7,533.1C253.4,533.1 252.2,532.4 251.6,531.3C251.3,530.8 251.1,530.2 251.1,529.6C251.1,529 251.3,528.4 251.5,527.9C252,527.2 252.5,526.7 253.2,526.4ZM215.3,507.2L225.9,507.2L225.9,527.9L215.3,527.9L215.3,507.2Z" style="fill:black;fill-rule:nonzero;"/>
            <path d="M305.9,565.9L294.5,565.9L318.1,507.1L331.2,507.1L343.9,538.7L332.5,538.7L326.3,523.2C326,522.5 325.5,522.2 324.7,522.2C323.9,522.2 323.4,522.5 323.1,523.2L316.5,539.8L316.5,539.9C316.5,540 316.4,540.1 316.4,540.1L316.4,540.7C316.4,540.7 316.4,540.8 316.5,540.9L316.5,541L316.6,541.1C316.6,541.2 316.7,541.3 316.7,541.3C316.7,541.3 316.8,541.4 316.8,541.5L317.2,541.9C317.3,541.9 317.4,542 317.4,542L346.9,542C346.9,542 347,542 347.1,541.9L347.2,541.9C347.3,541.9 347.4,541.8 347.4,541.8C347.5,541.8 347.6,541.7 347.6,541.6C347.8,541.4 347.9,541.2 348,540.9L348,540.2C348,540.2 348,540.1 347.9,540L347.9,539.9L333.9,504.9C333.6,504.2 333.1,503.9 332.3,503.9L317,503.9C316.2,503.9 315.7,504.2 315.4,504.9L290.4,567.1C290.2,567.6 290.3,568.2 290.6,568.7C290.9,569.2 291.4,569.4 292,569.4L307,569.4C307.8,569.4 308.3,569.1 308.6,568.4L310.5,563.7C309.4,563.5 308.3,563 307.4,562.3L305.9,565.9ZM320.4,538.7L324.6,528.3L328.8,538.7L320.4,538.7Z" style="fill:black;fill-rule:nonzero;"/>
            <path d="M353.7,554.2L353.6,554C353.3,553.4 352.8,553.1 352.1,553.1L319,553.1C318.4,550.7 316.5,548.8 314.1,548.2C313.5,548 313,548 312.4,548C311.8,548 311.3,548.1 310.8,548.2C308.4,548.8 306.4,550.7 305.8,553.2C305.7,553.7 305.6,554.3 305.6,554.9C305.6,555.5 305.7,556.1 305.8,556.6C306.2,558.1 307,559.3 308.2,560.3C309.1,561 310.2,561.5 311.3,561.7C311.6,561.8 312,561.8 312.4,561.8C315.6,561.8 318.3,559.6 319,556.7L335.9,556.7L340.6,568.5C340.9,569.2 341.4,569.5 342.2,569.5L357.2,569.5C357.8,569.5 358.3,569.3 358.6,568.8C358.9,568.3 359,567.8 358.8,567.2L353.7,554.2ZM312.6,558.3L312.4,558.3C311.2,558.3 310.2,557.7 309.5,556.8C309.4,556.7 309.4,556.6 309.3,556.5C309,556 308.8,555.4 308.8,554.8C308.8,554.2 309,553.6 309.2,553.1C309.5,552.5 310,551.9 310.7,551.6C311.2,551.3 311.7,551.2 312.3,551.2C312.9,551.2 313.5,551.4 314,551.7C314.6,552 315.1,552.5 315.4,553.1C315.7,553.6 315.8,554.1 315.8,554.8C315.8,555.4 315.6,556 315.3,556.5C314.9,557.5 313.8,558.3 312.6,558.3ZM343.3,565.9L339.5,556.5L350.9,556.5L354.7,565.9L343.3,565.9Z" style="fill:black;fill-rule:nonzero;"/>
            <path d="M507.9,505.1C507.6,504.4 507.1,504 506.3,504L486.6,504C486.2,504 485.8,504.1 485.5,504.4L463.7,522.2L463.7,505.5C463.7,505 463.5,504.6 463.2,504.3C462.9,504 462.5,503.8 462,503.8L448,503.8C447.5,503.8 447.1,504 446.8,504.3C446.5,504.6 446.3,505.1 446.3,505.5L446.3,527.7C446.8,527.6 447.4,527.5 447.9,527.5C448.5,527.5 449.1,527.6 449.6,527.7L449.6,507.2L460.2,507.2L460.2,524.9L452.3,531.3C451.5,530.6 450.6,530.2 449.6,529.9C449,529.7 448.5,529.7 447.9,529.7C447.3,529.7 446.8,529.8 446.3,529.9C443.9,530.5 441.9,532.4 441.3,534.9C441.2,535.4 441.1,536 441.1,536.6C441.1,537.2 441.2,537.8 441.3,538.3C442.1,541.2 444.7,543.4 447.9,543.4C451.7,543.4 454.7,540.3 454.7,536.6C454.7,535.7 454.5,534.9 454.2,534.2L487,507.5L501.4,507.5L446.8,552.4L446.3,552.9C446.3,553 446.2,553 446.2,553.1C446.2,553.1 446.2,553.2 446.1,553.2L446.1,567.8C446.1,568.3 446.3,568.7 446.6,569C446.9,569.3 447.3,569.5 447.8,569.5L461.8,569.5C462.3,569.5 462.7,569.3 463,569C463.3,568.7 463.5,568.3 463.5,567.8L463.5,548.4L484.4,569C484.7,569.3 485.1,569.5 485.6,569.5L505.1,569.5C505.9,569.5 506.4,569.2 506.7,568.5C507,567.8 506.9,567.2 506.4,566.7L474.4,534.4L507.4,507.2C508,506.5 508.2,505.9 507.9,505.1ZM451.6,536.6C451.6,538.5 450,540.1 448,540.1C446.7,540.1 445.5,539.4 444.9,538.3C444.6,537.8 444.4,537.2 444.4,536.6C444.4,536 444.6,535.4 444.8,534.9C445.1,534.3 445.6,533.7 446.3,533.4C446.8,533.1 447.3,533 447.9,533C448.5,533 449.1,533.2 449.6,533.5C450.6,534.1 451.3,535.2 451.3,536.4C451.6,536.5 451.6,536.5 451.6,536.6ZM460.4,565.9L449.8,565.9L449.8,554.4L460.4,545.7L460.4,565.9ZM501.3,565.9L486.6,565.9L463.5,543.2L471.9,536.4L501.3,565.9Z" style="fill:black;fill-rule:nonzero;"/>
            <path d="M421.9,514.2C421.3,514 420.8,514 420.2,514C419.6,514 419.1,514.1 418.6,514.2C416.2,514.8 414.3,516.7 413.7,519.1L402.9,519.1C398,519.1 393.9,520.8 390.5,524.2C387.1,527.6 385.3,531.8 385.3,536.6C385.3,541.4 387,545.6 390.5,549C394,552.4 398.1,554.2 402.9,554.2L420.4,554.2L420.4,566L404,566C395.9,566 389,563.1 383.2,557.4C377.4,551.7 374.6,544.7 374.6,536.6C374.6,528.5 377.5,521.6 383.2,515.8C388.9,510.1 395.9,507.2 404,507.2L421.8,507.2C422.3,507.2 422.7,507 423,506.7C423.3,506.4 423.5,506 423.5,505.5C423.5,505 423.3,504.6 423,504.3C422.7,504 422.2,503.8 421.8,503.8L404,503.8C395,503.8 387.3,507 380.8,513.4C374.4,519.8 371.2,527.6 371.2,536.6C371.2,545.6 374.4,553.3 380.8,559.8C387.2,566.2 395,569.4 404,569.4L421.8,569.4C422.3,569.4 422.7,569.2 423,568.9C423.3,568.6 423.5,568.2 423.5,567.7L423.5,552.5C423.5,552 423.3,551.6 423,551.3C422.7,551 422.2,550.8 421.8,550.8L402.6,550.8C398.7,550.8 395.3,549.4 392.6,546.6C389.8,543.8 388.4,540.5 388.4,536.6C388.4,532.7 389.8,529.3 392.6,526.6C395.4,523.8 398.7,522.4 402.6,522.4L413.4,522.4L413.4,522.5C414.2,525.4 416.8,527.6 420,527.6C423.8,527.6 426.8,524.5 426.8,520.8C426.9,517.6 424.8,514.9 421.9,514.2ZM420.1,524.3C418.8,524.3 417.6,523.6 417,522.5L417,522.4C416.7,521.9 416.6,521.4 416.6,520.8C416.6,520.2 416.8,519.6 417,519.1C417,519.1 417,519 417.1,519C417.4,518.4 417.9,517.9 418.5,517.6C419,517.3 419.5,517.2 420.1,517.2C420.7,517.2 421.3,517.4 421.8,517.7C422.9,518.3 423.6,519.4 423.6,520.8C423.7,522.7 422.1,524.3 420.1,524.3Z" style="fill:black;fill-rule:nonzero;"/>
        </g>
        <g>
            <path d="M228.9,591.7L228.9,603C228.9,608.2 225.8,612 220.4,612C214.9,612 211.9,608.3 211.9,603L211.9,591.7L216.6,591.7L216.6,603.5C216.6,606.1 218,607.7 220.4,607.7C222.6,607.7 224.2,606 224.2,603.5L224.2,591.7L228.9,591.7Z" style="fill:black;fill-rule:nonzero;"/>
            <path d="M277.3,598.3C277.3,601.9 274.9,605.1 270.7,605.1L266.5,605.1L266.5,611.5L261.8,611.5L261.8,591.7L269.8,591.7C274.9,591.7 277.3,594.5 277.3,598.3ZM272.5,598.4C272.5,596.6 271.2,595.9 269.6,595.9L266.3,595.9L266.3,600.9L269.6,600.9C271.2,600.9 272.5,600 272.5,598.4Z" style="fill:black;fill-rule:nonzero;"/>
            <path d="M325.1,605.6C325.1,609.3 322.2,612 316.8,612C311.7,612 308.5,608.7 308.5,608.7L310.7,604.9C312.9,607.1 315.2,607.7 316.8,607.7C319.4,607.7 320.3,606.9 320.3,605.8C320.3,604.9 319.6,604.3 317,603.8C311.7,602.9 309.2,601 309.2,597.6C309.2,594.1 312.1,591.2 317,591.2C317.7,591.2 321.6,591.3 324.2,593.7L322.1,597.4C322.1,597.4 320.3,595.4 316.9,595.4C315.3,595.4 313.8,596 313.8,597.1C313.8,598 314.5,598.5 316.9,599C321.8,600.1 325.1,601.3 325.1,605.6Z" style="fill:black;fill-rule:nonzero;"/>
            <path d="M371.1,591.7L371.1,595.9L365.9,595.9L365.9,611.5L361.2,611.5L361.2,596L356,596L356,591.8L371.1,591.8L371.1,591.7Z" style="fill:black;fill-rule:nonzero;"/>
            <path d="M413.5,608.2L405.6,608.2L404.4,611.5L399.2,611.5L407.4,591.7L411.8,591.7L420,611.5L414.8,611.5L413.5,608.2ZM411.8,604L409.5,597.9L407.2,604L411.8,604Z" style="fill:black;fill-rule:nonzero;"/>
            <path d="M463,591.7L463,595.9L457.8,595.9L457.8,611.5L453.1,611.5L453.1,596L447.9,596L447.9,591.8L463,591.8L463,591.7Z" style="fill:black;fill-rule:nonzero;"/>
            <path d="M500,595.8L500,599.5L506.6,599.5L506.6,603.7L500,603.7L500,607.2L508,607.2L508,611.4L495.3,611.4L495.3,591.6L508,591.6L508,595.8L500,595.8Z" style="fill:black;fill-rule:nonzero;"/>
        </g>
    </g>
    <g transform="matrix(1.40076,0,0,1.37354,420.611,90.1405)">
        <text x="0px" y="0px" style='font-family: "Rajdhani", sans-serif;font-weight:700;font-size:50.813px;fill:black;"'>CAREERS</text>
    </g>
    <g transform="matrix(1.40076,0,0,1.37354,418.689,154.737)">
        <text x="0px" y="0px" style='font-family: "Rajdhani", sans-serif;font-size:50.813px;fill:black;'>IN</text>
        <text x="54.675px" y="0px" style='font-family: "Rajdhani", sans-serif;font-weight:700;font-size:50.813px;fill:black;'>CODE</text>
    </g>
</svg>
